<svg width="79" height="40" viewBox="0 0 79 40" fill="none" xmlns="http://www.w3.org/2000/svg">
<path d="M0 5H6V34H0V5Z" fill="#EBD9FC"/>
<path d="M3 5H6V34H3V5Z" fill="#9667E0"/>
<path d="M0 2C0 0.895431 0.895431 0 2 0H4C5.10457 0 6 0.895431 6 2C6 3.10457 5.10457 4 4 4H2C0.89543 4 0 3.10457 0 2Z" fill="#EBD9FC"/>
<path d="M3 1.5C3 0.671573 3.67157 0 4.5 0C5.32843 0 6 0.671573 6 1.5V2.5C6 3.32843 5.32843 4 4.5 4C3.67157 4 3 3.32843 3 2.5V1.5Z" fill="#9667E0"/>
<path d="M0 34H6L3 40L0 34Z" fill="#EBD9FC"/>
<path d="M3 34H6L3 40V34Z" fill="#9667E0"/>
<path d="M11.72 28V25.12H12.92V16.888H11.72V14.008H21.368C22.824 14.008 23.944 14.312 24.728 14.92C25.512 15.512 25.904 16.376 25.904 17.512C25.904 18.12 25.776 18.648 25.52 19.096C25.28 19.528 24.936 19.88 24.488 20.152C24.056 20.408 23.536 20.584 22.928 20.68L22.832 20.488C23.632 20.536 24.312 20.712 24.872 21.016C25.432 21.32 25.856 21.736 26.144 22.264C26.432 22.792 26.576 23.424 26.576 24.16C26.576 25.456 26.136 26.424 25.256 27.064C24.392 27.688 23.072 28 21.296 28H11.72ZM17.72 25.12H19.904C20.48 25.12 20.912 25 21.2 24.76C21.488 24.504 21.632 24.128 21.632 23.632C21.632 23.12 21.488 22.744 21.2 22.504C20.912 22.248 20.48 22.12 19.904 22.12H17.72V25.12ZM17.72 19.288H19.568C20.048 19.288 20.4 19.184 20.624 18.976C20.848 18.768 20.96 18.464 20.96 18.064C20.96 17.664 20.848 17.368 20.624 17.176C20.4 16.984 20.048 16.888 19.568 16.888H17.72V19.288ZM27.8216 28V25.12H29.0216V16.888H27.8216V14.008H35.0216V16.888H33.8216V25.12H37.4216V21.64H40.4216V28H27.8216ZM66.9815 28.24C65.3495 28.24 63.9415 27.944 62.7575 27.352C61.5895 26.744 60.6935 25.904 60.0695 24.832C59.4455 23.744 59.1335 22.48 59.1335 21.04C59.1335 19.568 59.4455 18.288 60.0695 17.2C60.7095 16.096 61.5895 15.248 62.7095 14.656C63.8295 14.048 65.1255 13.744 66.5975 13.744C67.9895 13.744 69.1415 14.032 70.0535 14.608C70.9655 15.184 71.6295 16.064 72.0455 17.248L70.9415 16.528V14.008H74.0615V19.24H71.0615C70.7415 18.536 70.3015 18.008 69.7415 17.656C69.1815 17.288 68.4855 17.104 67.6535 17.104C66.9175 17.104 66.2775 17.264 65.7335 17.584C65.2055 17.888 64.7975 18.336 64.5095 18.928C64.2215 19.504 64.0775 20.192 64.0775 20.992C64.0775 21.808 64.1975 22.512 64.4375 23.104C64.6935 23.68 65.0695 24.12 65.5655 24.424C66.0615 24.728 66.6695 24.88 67.3895 24.88C68.5415 24.88 69.3175 24.568 69.7175 23.944C70.1175 23.32 70.3255 22.304 70.3415 20.896L71.8295 23.056H68.1335V20.176H74.4215V21.016C74.4215 22.568 74.1095 23.88 73.4855 24.952C72.8615 26.024 71.9895 26.84 70.8695 27.4C69.7495 27.96 68.4535 28.24 66.9815 28.24Z" fill="#9667E0"/>
<path d="M49.6663 28.24C48.0343 28.24 46.6103 27.944 45.3943 27.352C44.1943 26.744 43.2583 25.896 42.5863 24.808C41.9303 23.72 41.6023 22.448 41.6023 20.992C41.6023 19.536 41.9303 18.264 42.5863 17.176C43.2583 16.088 44.1943 15.248 45.3943 14.656C46.6103 14.048 48.0343 13.744 49.6663 13.744C51.2983 13.744 52.7143 14.048 53.9143 14.656C55.1303 15.248 56.0663 16.088 56.7223 17.176C57.3943 18.264 57.7303 19.536 57.7303 20.992C57.7303 22.448 57.3943 23.72 56.7223 24.808C56.0663 25.896 55.1303 26.744 53.9143 27.352C52.7143 27.944 51.2983 28.24 49.6663 28.24ZM49.6663 24.88C50.3223 24.88 50.8823 24.728 51.3463 24.424C51.8103 24.12 52.1623 23.68 52.4023 23.104C52.6583 22.512 52.7863 21.808 52.7863 20.992C52.7863 20.16 52.6583 19.456 52.4023 18.88C52.1623 18.304 51.8103 17.864 51.3463 17.56C50.8823 17.256 50.3223 17.104 49.6663 17.104C49.0263 17.104 48.4663 17.256 47.9863 17.56C47.5223 17.864 47.1623 18.304 46.9062 18.88C46.6663 19.456 46.5463 20.16 46.5463 20.992C46.5463 21.808 46.6663 22.512 46.9062 23.104C47.1623 23.68 47.5223 24.12 47.9863 24.424C48.4663 24.728 49.0263 24.88 49.6663 24.88Z" fill="#ED60DF"/>
</svg>
